<svg width="24" height="24" viewBox="0 0 24 24" fill="none" xmlns="http://www.w3.org/2000/svg">
<path d="M21.8588 0H3.06214C1.90824 0 0.973633 0.940711 0.973633 2.10215V21.0215C0.973633 22.1829 1.90824 23.1236 3.06214 23.1236H21.8588C23.0127 23.1236 23.9473 22.1829 23.9473 21.0215V2.10215C23.9473 0.940711 23.0127 0 21.8588 0ZM19.103 15.7314L17.1523 15.7588C17.1523 15.7588 16.7315 15.8418 16.1811 15.4592C15.4512 14.9547 14.763 13.6419 14.2263 13.8122C13.6822 13.9866 13.6989 15.168 13.6989 15.168C13.6989 15.168 13.7031 15.3762 13.5788 15.5117C13.4441 15.6578 13.1799 15.6431 13.1799 15.6431H12.3059C12.3059 15.6431 10.3782 15.8039 8.6792 14.0213C6.82878 12.0779 5.19347 8.24252 5.19347 8.24252C5.19347 8.24252 5.0974 8.00078 5.19974 7.87675C5.31565 7.74011 5.62788 7.7359 5.62788 7.7359L7.71639 7.72539C7.71639 7.72539 7.91271 7.76008 8.05473 7.86519C8.17065 7.95137 8.23643 8.11324 8.23643 8.11324C8.23643 8.11324 8.57373 8.97407 9.02171 9.75397C9.89471 11.2738 10.2999 11.607 10.5965 11.4441C11.0288 11.2065 10.8993 9.2957 10.8993 9.2957C10.8993 9.2957 10.9076 8.60199 10.6821 8.29297C10.5066 8.05228 10.1767 7.9808 10.0326 7.96294C9.91455 7.94717 10.1067 7.67179 10.3573 7.54776C10.7332 7.36277 11.3974 7.35226 12.1816 7.35962C12.7925 7.36593 12.969 7.40377 13.2071 7.46263C13.9276 7.63815 13.6833 8.31505 13.6833 9.93896C13.6833 10.4592 13.5903 11.1908 13.9621 11.4315C14.1229 11.5355 14.5145 11.4472 15.4909 9.77183C15.9556 8.97722 16.3033 8.04387 16.3033 8.04387C16.3033 8.04387 16.3795 7.8778 16.4975 7.80633C16.6187 7.73275 16.7816 7.75587 16.7816 7.75587L18.9797 7.74221C18.9797 7.74221 19.6397 7.66233 19.7473 7.96399C19.86 8.27931 19.5008 9.01611 18.6028 10.2217C17.1283 12.2019 16.9643 12.018 18.1892 13.1636C19.3588 14.2578 19.6 14.7897 19.6408 14.8569C20.1242 15.6673 19.103 15.7314 19.103 15.7314Z" fill="white"/>
</svg>
